<svg width="114" height="114" viewBox="0 0 114 114" fill="none" xmlns="http://www.w3.org/2000/svg">
<g clip-path="url(#clip0_11_706)">
<path d="M106.666 0H7.30769C3.27176 0 0 3.27176 0 7.30769V106.666C0 110.701 3.27176 113.973 7.30769 113.973H106.666C110.701 113.973 113.973 110.701 113.973 106.666V7.30769C113.973 3.27176 110.701 0 106.666 0Z" fill="#19202D"/>
<path fill-rule="evenodd" clip-rule="evenodd" d="M39.8926 94.9124C37.9674 94.8791 36.0544 94.6 34.1999 94.0817C32.5761 93.6208 31.0861 92.7781 29.8543 91.6239C28.6368 90.4404 27.7184 88.9842 27.1748 87.3757C26.4903 85.4416 26.3076 83.2347 26.3076 81.2056V20.5736L35.0768 19V80.9888C35.0768 81.9899 35.1353 83.1811 35.4447 84.1335C35.6114 84.7183 35.9173 85.2541 36.3362 85.6949C36.7898 86.1098 37.3399 86.4046 37.9366 86.5523C38.9467 86.8235 39.9726 87.0326 41.0083 87.1784L42.3845 87.3854L41.0813 94.9586L39.8926 94.9124Z" fill="white"/>
<path d="M76.6235 45.281L75.352 50.8251C74.9184 52.7299 74.4434 54.6348 73.9245 56.5592L72.4118 62.1057C71.8516 60.2512 71.3116 58.3495 70.792 56.4008L69.3304 50.6667L67.998 45.186L66.875 40.2849H60.2104C59.8499 41.7879 59.4285 43.4175 58.9316 45.1738L57.5115 50.6229L55.9988 56.3813L54.508 62.1008C54.0208 60.3226 53.5117 58.4811 53.0148 56.5543L51.6288 50.8202L50.367 45.281L49.244 40.2849H39.2568L42.1677 50.0845L45.0762 59.2898C46.0278 62.1788 46.9486 64.8526 47.8385 67.3112C48.7284 69.7698 49.5574 71.8899 50.3256 73.6713H57.5626L60.5076 64.0374C61.46 60.8707 62.3491 57.6772 63.2041 54.4497C63.2724 54.7103 63.343 54.971 63.4112 55.2316C64.2004 58.2034 65.0595 61.1451 65.9884 64.0568L69.0893 73.6665H76.4652C77.2365 71.8883 78.0753 69.7682 78.9815 67.3063C79.8876 64.8445 80.8157 62.1707 81.7657 59.2849L84.6888 50.0797L87.5656 40.2801H77.744L76.6235 45.281Z" fill="white"/>
</g>
<defs>
<clipPath id="clip0_11_706">
<rect width="114" height="114" fill="white"/>
</clipPath>
</defs>
</svg>
