<svg width="642" height="276" viewBox="0 0 642 276" fill="none" xmlns="http://www.w3.org/2000/svg">
<path fill-rule="evenodd" clip-rule="evenodd" d="M291.467 66H560.328C569.499 66 577 73.4469 577 82.5316V184.464C577 193.549 569.49 200.996 560.328 200.996H291.467C285.555 200.996 250.233 201.403 238.772 193.628C269.352 191.242 274.796 179.248 274.796 170.878V82.5316C274.796 73.4389 282.297 66.0001 291.467 66.0001V66ZM535.78 134.174C535.687 132.468 535.385 130.808 534.873 129.194C534.338 127.58 533.548 126.128 532.478 124.883C531.409 123.638 530.083 122.623 528.456 121.816C526.852 121.009 524.805 120.594 522.364 120.594C520.039 120.594 518.039 120.986 516.365 121.747C514.691 122.508 513.296 123.522 512.18 124.767C511.064 126.012 510.227 127.465 509.622 129.125C509.041 130.785 508.599 132.468 508.32 134.174H535.78ZM341.269 135.996C339.385 143.028 337.432 149.991 335.34 156.885L328.876 177.866H312.972C311.275 173.993 309.461 169.381 307.508 164.009C305.555 158.66 303.532 152.827 301.44 146.532L295.045 126.473L288.652 105.123H310.577L313.042 116.006L315.832 128.088L318.878 140.584C319.971 144.78 321.064 148.792 322.157 152.665L325.435 140.192L328.76 127.649L331.875 115.776C332.968 111.948 333.898 108.398 334.689 105.123H349.36L351.825 115.799L354.754 127.742L357.94 140.238C359.079 144.48 360.265 148.63 361.497 152.665L364.822 140.584C365.961 136.388 367.008 132.238 367.961 128.088L370.751 116.006L373.216 105.123H394.793L388.469 126.473L382.051 146.532C379.982 152.827 377.936 158.66 375.936 164.009C373.937 169.381 372.1 173.993 370.402 177.866H354.196L347.384 156.931C345.152 150.037 343.129 143.051 341.269 135.996H341.269ZM422.749 177.866H401.962V105.123H422.749V177.866ZM424.655 84.8849C424.655 88.666 423.423 91.6402 420.982 93.8076C418.54 95.9981 415.634 97.0818 412.286 97.0818C408.891 97.0818 405.985 95.9981 403.497 93.8076C401.033 91.6402 399.8 88.666 399.8 84.8849C399.8 81.1038 401.033 78.1527 403.497 75.9853C405.985 73.8411 408.891 72.7574 412.286 72.7574C415.634 72.7574 418.54 73.8411 420.982 75.9853C423.423 78.1527 424.655 81.1038 424.655 84.8849ZM481.522 123.245C479.662 122.784 477.453 122.3 474.942 121.793C472.431 121.263 469.734 121.009 466.874 121.009C465.549 121.009 463.991 121.124 462.177 121.378C460.363 121.632 458.992 121.885 458.085 122.162V177.866H437.298V108.951C441.019 107.636 445.413 106.438 450.482 105.285C455.55 104.155 461.2 103.579 467.408 103.579C468.548 103.579 469.897 103.648 471.477 103.786C473.035 103.925 474.616 104.109 476.197 104.34C477.802 104.593 479.383 104.87 480.941 105.193C482.499 105.492 483.847 105.884 484.986 106.322L481.522 123.245ZM486.952 142.082C486.952 135.627 487.952 129.978 489.928 125.113C491.928 120.248 494.578 116.213 497.834 112.986C501.112 109.781 504.856 107.337 509.087 105.654C513.296 103.994 517.643 103.164 522.084 103.164C532.501 103.164 540.732 106.322 546.777 112.663C552.846 118.98 555.868 128.272 555.868 140.514C555.868 141.737 555.822 143.051 555.752 144.48C555.659 145.887 555.566 147.155 555.473 148.284H508.32C508.785 152.596 510.762 156.031 514.295 158.568C517.806 161.127 522.55 162.395 528.502 162.395C532.315 162.395 536.059 162.049 539.733 161.334C543.406 160.62 546.405 159.743 548.731 158.683L551.52 175.306C550.381 175.837 548.893 176.367 547.057 176.92C545.22 177.497 543.174 177.958 540.895 178.373C538.616 178.765 536.175 179.111 533.571 179.387C530.966 179.687 528.362 179.826 525.758 179.826C519.178 179.826 513.435 178.857 508.529 176.92C503.623 174.984 499.578 172.332 496.369 168.943C493.184 165.577 490.812 161.588 489.254 157C487.719 152.412 486.952 147.431 486.952 142.082H486.952Z" fill="#19202D"/>
<path fill-rule="evenodd" clip-rule="evenodd" d="M244.375 134.432C244.032 129.395 242.817 124.131 239.635 120.154C236.447 116.169 232.085 114.651 227.032 114.651C224.32 114.651 221.651 115.144 219.228 116.384C216.886 117.582 214.842 119.171 213.116 121.144C211.314 123.204 209.977 125.549 209.025 128.104C208.263 130.149 207.762 132.274 207.487 134.432H244.375ZM207.118 145.984C207.54 151.978 209.044 158.245 213.05 162.849C217.484 167.946 224.592 169.201 231.054 169.201C234.554 169.201 238.742 169.002 242.091 167.917C244.011 167.295 246.221 166.569 248.016 165.646L250.398 164.423L252.952 176.277L251.609 177.001C249.381 178.203 246.316 179.108 243.885 179.817C239.675 181.044 235.149 181.444 230.775 181.444C225.059 181.444 219.141 180.711 213.83 178.522C209.267 176.641 205.244 173.927 202.019 170.199C198.843 166.529 196.645 162.272 195.324 157.624C193.891 152.581 193.317 147.317 193.317 142.087C193.317 136.287 194.07 130.385 196.173 124.944C197.929 120.402 200.351 116.138 203.698 112.556C206.731 109.31 210.312 106.761 214.449 105.093C218.401 103.498 222.558 102.683 226.823 102.683C235.598 102.683 243.389 105.397 249.317 111.932C256.011 119.314 257.631 130.169 257.631 139.735C257.631 140.5 257.605 141.267 257.557 142.031C257.511 142.748 257.442 143.463 257.363 144.178L257.161 145.984H207.118H207.118Z" fill="#19202D"/>
<path fill-rule="evenodd" clip-rule="evenodd" d="M159.488 163.269C160.847 160.093 162.201 156.916 163.561 153.742C165.771 148.586 167.779 143.346 169.599 138.042C171.471 132.587 173.219 127.09 174.798 121.544C176.275 116.358 177.646 111.137 178.84 105.879L179.2 104.296H192.537L191.888 106.826C190.208 113.372 188.34 119.871 186.275 126.308C184.249 132.618 182.064 138.877 179.758 145.092C177.546 151.053 175.177 156.961 172.569 162.763L164.866 179.898H153.6L153.043 178.746C150.494 173.473 148.084 168.133 145.754 162.762C143.228 156.938 140.876 151.041 138.668 145.092C136.365 138.885 134.185 132.633 132.153 126.334C130.073 119.891 128.208 113.38 126.537 106.822L125.894 104.296H139.754L140.119 105.87C141.337 111.12 142.732 116.333 144.251 121.505C145.88 127.049 147.645 132.553 149.524 138.018C151.355 143.34 153.339 148.607 155.441 153.829C156.718 157.002 158.059 160.157 159.488 163.269V163.269Z" fill="#19202D"/>
<path fill-rule="evenodd" clip-rule="evenodd" d="M117.004 85.6049C117.004 88.0795 116.241 90.356 114.425 92.0924C112.729 93.7134 110.64 94.528 108.285 94.528C105.927 94.528 103.822 93.7122 102.111 92.1045C100.267 90.3739 99.4951 88.0949 99.4951 85.6049C99.4951 83.1047 100.267 80.8383 102.09 79.0785C103.794 77.4339 105.91 76.6128 108.285 76.6128C110.656 76.6128 112.758 77.4335 114.445 79.0915C116.241 80.8562 117.004 83.1193 117.004 85.6049Z" fill="#19202D"/>
<path fill-rule="evenodd" clip-rule="evenodd" d="M115.091 179.898H101.93V104.296H115.091V179.898Z" fill="#19202D"/>
<path fill-rule="evenodd" clip-rule="evenodd" d="M87.3763 181.11C84.5206 181.024 81.5777 180.683 78.8329 179.874C76.3886 179.153 74.1587 177.967 72.307 176.215C70.4439 174.452 69.1583 172.288 68.3028 169.891C67.2767 167.014 67 163.739 67 160.706V70.4493L80.1611 68.1074V160.383C80.1611 161.875 80.2499 163.635 80.7136 165.065C80.9866 165.907 81.4045 166.766 82.0521 167.39C82.7237 168.037 83.562 168.418 84.4555 168.666C85.949 169.08 87.5109 169.354 89.0438 169.582L91.112 169.89L89.1531 181.164L87.3763 181.11H87.3763Z" fill="#19202D"/>
</svg>
